<svg xmlns="http://www.w3.org/2000/svg" width="76.799" height="60.955" viewBox="0 0 76.799 60.955">
  <g id="boutique" transform="translate(0 0)">
    <path id="Path_40" data-name="Path 40" d="M703.39-638.168v2.93h9.377v6.432l-1.188.077v38.772h2.535v1.451h-76.8v-1.411h2.547v-38.814l-1.168-.062v-6.432h38.28v-2.912h-2.088v-11.324h31.3v11.293Zm-61.706,9.43v34.583H709.76v-34.583Zm69.346-4.986h-70.61v3.468h70.61ZM704.473-648H676.658v8.341h27.816Zm5.31,55.416H641.689v2.6h68.094ZM701.588-638.1H678.809v2.813h22.779Z" transform="translate(-637.316 649.461)" fill="#fff"/>
    <path id="Path_41" data-name="Path 41" d="M710.289-440.9H735.16v22.5H710.289Zm23.136,1.477h-14.3v19.535h14.3Zm-21.433,19.6c1.492,0,2.939-.038,4.382.015.789.029,1-.174,1-.843-.031-6.052-.019-12.1-.022-18.155,0-.21-.029-.42-.045-.628h-5.31Z" transform="translate(-698.915 468.501)" fill="#fff"/>
    <path id="Path_42" data-name="Path 42" d="M929.015-308.856v-5.866h21.712v5.866Zm1.736-4.392v2.909h18.268v-2.909Z" transform="translate(-883.549 359.02)" fill="#fff"/>
    <path id="Path_43" data-name="Path 43" d="M928.866-435.858v-5.861h21.741v5.861Zm1.736-1.469H948.88v-2.925H930.6Z" transform="translate(-883.424 469.211)" fill="#fff"/>
    <path id="Path_44" data-name="Path 44" d="M929.039-377.888h21.738v5.868H929.039Zm1.716,4.409h18.272V-376.4H930.755Z" transform="translate(-883.569 413.827)" fill="#fff"/>
  </g>
</svg>
