<svg xmlns="http://www.w3.org/2000/svg" width="24.667" height="24.699" viewBox="0 0 24.667 24.699">
  <path id="call" d="M3.319,7.793a1.817,1.817,0,0,1,.463-.987l3.7-3.7q.432-.37.648.123l2.991,5.613a.808.808,0,0,1-.154.956L9.61,11.154a1.535,1.535,0,0,0-.432.956,4.708,4.708,0,0,0,.956,2.375,20.279,20.279,0,0,0,1.881,2.468l.956.986c.288.288.657.643,1.111,1.064a18.618,18.618,0,0,0,2.235,1.665A5,5,0,0,0,18.769,21.7a1.342,1.342,0,0,0,.987-.4l1.6-1.6a.678.678,0,0,1,.924-.123l5.4,3.176a.451.451,0,0,1,.247.324.394.394,0,0,1-.123.355l-3.7,3.7a1.812,1.812,0,0,1-.986.462,7.461,7.461,0,0,1-3.409-.416A15.422,15.422,0,0,1,16.2,25.494q-1.619-1.048-3.007-2.127t-2.22-1.85l-.8-.772q-.308-.308-.817-.848T7.575,17.769a30.972,30.972,0,0,1-2.19-3.1,18.08,18.08,0,0,1-1.6-3.439A7.315,7.315,0,0,1,3.319,7.793Z" transform="translate(-3.267 -2.947)" fill="#fff"/>
</svg>
