<svg xmlns="http://www.w3.org/2000/svg" width="72.274" height="61.439" viewBox="0 0 72.274 61.439">
  <g id="company" transform="translate(0.25 0.25)">
    <path id="Path_60" data-name="Path 60" d="M64,304h2.315v1.966H64Zm0,0" transform="translate(-54.739 -266.65)" fill="#fff" stroke="#103c55" stroke-width="0.5"/>
    <path id="Path_61" data-name="Path 61" d="M112,304h2.315v1.966H112Zm0,0" transform="translate(-95.793 -266.65)" fill="#fff" stroke="#103c55" stroke-width="0.5"/>
    <path id="Path_62" data-name="Path 62" d="M160,304h2.315v1.966H160Zm0,0" transform="translate(-136.847 -266.65)" fill="#fff" stroke="#103c55" stroke-width="0.5"/>
    <path id="Path_63" data-name="Path 63" d="M69.459,38.333H60.2V34.4h6.946c2.554,0,4.631-1.763,4.631-3.932a4.134,4.134,0,0,0-3.548-3.824c-.5-2.837-3.391-5.022-6.871-5.022a7.929,7.929,0,0,0-1.158.095V5.9H55.567V0H16.207V2.06a7.682,7.682,0,0,0-2.315.712,7.775,7.775,0,0,0-3.473-.807c-3.48,0-6.37,2.185-6.871,5.022A4.134,4.134,0,0,0,0,10.812c0,2.168,2.077,3.932,4.631,3.932h6.946V33.418H2.315V55.042H0v5.9H71.774v-5.9H69.459ZM65.986,27.521V28.5h1.158a2.164,2.164,0,0,1,2.315,1.966,2.164,2.164,0,0,1-2.315,1.966H48.621a2.164,2.164,0,0,1-2.315-1.966A2.164,2.164,0,0,1,48.621,28.5h1.158v-.983c0-2.168,2.077-3.932,4.631-3.932a5.136,5.136,0,0,1,2.775.806l.7.447.7-.447a5.136,5.136,0,0,1,2.775-.806C63.909,23.589,65.986,25.353,65.986,27.521Zm-8.1-5.091a7.775,7.775,0,0,0-3.473-.807,6.975,6.975,0,0,0-6.542,3.932H39.36v1.966h6.208a3.7,3.7,0,0,0-1.578,2.949c0,2.168,2.077,3.932,4.631,3.932h9.261v3.932H37.045V7.863H57.882ZM53.252,5.9H37.045V1.966H53.252ZM34.729,1.966V5.9H18.522V1.966ZM4.631,12.778a2.164,2.164,0,0,1-2.315-1.966A2.164,2.164,0,0,1,4.631,8.846H5.788V7.863c0-2.168,2.077-3.932,4.631-3.932a5.136,5.136,0,0,1,2.775.806l.7.447.7-.447a5.071,5.071,0,0,1,1.617-.663V5.9H11.576v6.88Zm9.261-4.914H34.729v30.47H32.414V33.418H13.892ZM4.631,35.384H30.1V44.23H62.513V42.264h-30.1V40.3H67.144v1.966H64.828V44.23h2.315V55.042H64.828V46.2H55.567v8.846H53.252V46.2H43.991v8.846H41.675V46.2H32.414v8.846H25.468V41.281H23.153v13.76H18.522V41.281H16.207v13.76H11.576V41.281H9.261v13.76H4.631ZM62.513,55.042H57.882v-6.88h4.631Zm-11.576,0H46.306v-6.88h4.631Zm-11.576,0H34.729v-6.88H39.36Zm30.1,3.932H2.315V57.008H69.459Zm0,0" fill="#fff" stroke="#103c55" stroke-width="0.5"/>
    <path id="Path_64" data-name="Path 64" d="M112,80h16.207v1.966H112Zm0,0" transform="translate(-95.793 -70.171)" fill="#fff" stroke="#103c55" stroke-width="0.5"/>
    <path id="Path_65" data-name="Path 65" d="M112,144h16.207v1.966H112Zm0,0" transform="translate(-95.793 -126.308)" fill="#fff" stroke="#103c55" stroke-width="0.5"/>
    <path id="Path_66" data-name="Path 66" d="M112,208h16.207v1.966H112Zm0,0" transform="translate(-95.793 -182.445)" fill="#fff" stroke="#103c55" stroke-width="0.5"/>
    <path id="Path_67" data-name="Path 67" d="M128,112h2.315v1.966H128Zm0,0" transform="translate(-109.478 -98.24)" fill="#fff" stroke="#103c55" stroke-width="0.5"/>
    <path id="Path_68" data-name="Path 68" d="M160,112h2.315v1.966H160Zm0,0" transform="translate(-136.847 -98.24)" fill="#fff" stroke="#103c55" stroke-width="0.5"/>
    <path id="Path_69" data-name="Path 69" d="M192,112h2.315v1.966H192Zm0,0" transform="translate(-164.216 -98.24)" fill="#fff" stroke="#103c55" stroke-width="0.5"/>
    <path id="Path_70" data-name="Path 70" d="M128,176h2.315v1.966H128Zm0,0" transform="translate(-109.478 -154.376)" fill="#fff" stroke="#103c55" stroke-width="0.5"/>
    <path id="Path_71" data-name="Path 71" d="M160,176h2.315v1.966H160Zm0,0" transform="translate(-136.847 -154.376)" fill="#fff" stroke="#103c55" stroke-width="0.5"/>
    <path id="Path_72" data-name="Path 72" d="M192,176h2.315v1.966H192Zm0,0" transform="translate(-164.216 -154.376)" fill="#fff" stroke="#103c55" stroke-width="0.5"/>
    <path id="Path_73" data-name="Path 73" d="M128,240h2.315v1.966H128Zm0,0" transform="translate(-109.478 -210.513)" fill="#fff" stroke="#103c55" stroke-width="0.5"/>
    <path id="Path_74" data-name="Path 74" d="M160,240h2.315v1.966H160Zm0,0" transform="translate(-136.847 -210.513)" fill="#fff" stroke="#103c55" stroke-width="0.5"/>
    <path id="Path_75" data-name="Path 75" d="M192,240h2.315v1.966H192Zm0,0" transform="translate(-164.216 -210.513)" fill="#fff" stroke="#103c55" stroke-width="0.5"/>
    <path id="Path_76" data-name="Path 76" d="M272,80h16.207v1.966H272Zm0,0" transform="translate(-232.64 -70.171)" fill="#fff" stroke="#103c55" stroke-width="0.5"/>
    <path id="Path_77" data-name="Path 77" d="M272,144h16.207v1.966H272Zm0,0" transform="translate(-232.64 -126.308)" fill="#fff" stroke="#103c55" stroke-width="0.5"/>
    <path id="Path_78" data-name="Path 78" d="M288,112h2.315v1.966H288Zm0,0" transform="translate(-246.325 -98.24)" fill="#fff" stroke="#103c55" stroke-width="0.5"/>
    <path id="Path_79" data-name="Path 79" d="M320,112h2.315v1.966H320Zm0,0" transform="translate(-273.694 -98.24)" fill="#fff" stroke="#103c55" stroke-width="0.5"/>
    <path id="Path_80" data-name="Path 80" d="M352,112h2.315v1.966H352Zm0,0" transform="translate(-301.064 -98.24)" fill="#fff" stroke="#103c55" stroke-width="0.5"/>
    <path id="Path_81" data-name="Path 81" d="M288,176h2.315v1.966H288Zm0,0" transform="translate(-246.325 -154.376)" fill="#fff" stroke="#103c55" stroke-width="0.5"/>
    <path id="Path_82" data-name="Path 82" d="M320,176h2.315v1.966H320Zm0,0" transform="translate(-273.694 -154.376)" fill="#fff" stroke="#103c55" stroke-width="0.5"/>
  </g>
</svg>
