<svg id="shop" xmlns="http://www.w3.org/2000/svg" width="82.646" height="56.987" viewBox="0 0 82.646 56.987">
  <g id="Group_85" data-name="Group 85">
    <g id="Group_84" data-name="Group 84">
      <path id="Path_46" data-name="Path 46" d="M78.848,103.027H77.471V72.533A9.3,9.3,0,0,0,82.646,64.5a.912.912,0,0,0-.159-.51L72.88,49.721a3.971,3.971,0,0,0-3.3-1.625H13.064a3.97,3.97,0,0,0-3.3,1.625L.159,63.995A.912.912,0,0,0,0,64.5a9.3,9.3,0,0,0,5.176,8.028v30.494H3.8a1.042,1.042,0,1,0,0,2.056H78.848a1.042,1.042,0,1,0,0-2.056ZM2.5,65.532H6.386a1.042,1.042,0,1,0,0-2.056H3.3l8.571-12.736a1.44,1.44,0,0,1,1.2-.589H69.582a1.439,1.439,0,0,1,1.2.589l8.571,12.736H76.26a1.042,1.042,0,1,0,0,2.056h3.882c-.592,3.643-4.283,6.459-8.734,6.459s-8.14-2.815-8.732-6.459h8.409a1.042,1.042,0,1,0,0-2.056H11.563a1.042,1.042,0,1,0,0,2.056h8.408c-.592,3.643-4.281,6.459-8.732,6.459S3.1,69.176,2.5,65.532Zm57.579,0c-.592,3.643-4.281,6.459-8.732,6.459s-8.14-2.815-8.732-6.459Zm-20.056,0c-.592,3.643-4.281,6.459-8.732,6.459s-8.14-2.815-8.732-6.459Zm28.552,37.495H55.473V99.59H68.579Zm0-5.493H55.473V78.716H68.579Zm6.47,5.493H71V77.688A1.13,1.13,0,0,0,69.79,76.66H54.263a1.13,1.13,0,0,0-1.211,1.028v25.339H7.6V73.53a13,13,0,0,0,3.642.517A11.6,11.6,0,0,0,21.267,68.81,11.6,11.6,0,0,0,31.3,74.047,11.6,11.6,0,0,0,41.323,68.81a11.6,11.6,0,0,0,10.028,5.236A11.6,11.6,0,0,0,61.379,68.81a11.6,11.6,0,0,0,10.028,5.236,13,13,0,0,0,3.642-.517Z" transform="translate(0 -48.096)" fill="#fff"/>
    </g>
  </g>
  <g id="Group_87" data-name="Group 87" transform="translate(11.646 28.564)">
    <g id="Group_86" data-name="Group 86">
      <path id="Path_47" data-name="Path 47" d="M108.292,256.516H73.356a1.131,1.131,0,0,0-1.211,1.028v20.874a1.131,1.131,0,0,0,1.211,1.028h34.937a1.13,1.13,0,0,0,1.211-1.028V257.544A1.13,1.13,0,0,0,108.292,256.516Zm-1.211,20.874H74.566V258.572h32.516Z" transform="translate(-72.145 -256.516)" fill="#fff"/>
    </g>
  </g>
</svg>
