<svg xmlns="http://www.w3.org/2000/svg" width="75.167" height="61.939" viewBox="0 0 75.167 61.939">
  <g id="venture" transform="translate(0.5 0.5)">
    <path id="Path_48" data-name="Path 48" d="M76.185,82.908h-1.2V31.11a1.117,1.117,0,0,0-1.2-1.016H66.616V25.016A1.117,1.117,0,0,0,65.419,24H39.1a1.117,1.117,0,0,0-1.2,1.016v5.078H30.728a1.117,1.117,0,0,0-1.2,1.016v51.8H21.159V75.725a8.043,8.043,0,0,0,6.891-5.2A6.534,6.534,0,0,0,25.144,63.1a4.568,4.568,0,0,0-1.338-6.427,6.815,6.815,0,0,0-7.687,0A4.568,4.568,0,0,0,14.781,63.1a6.534,6.534,0,0,0-2.906,7.426,8.043,8.043,0,0,0,6.891,5.2v2.192L17.22,76.6a1.351,1.351,0,0,0-1.692,0,.911.911,0,0,0,0,1.436l2.991,2.539a1.2,1.2,0,0,0,.248.16v2.169H9.2a1.029,1.029,0,1,0,0,2.031H76.185a1.029,1.029,0,1,0,0-2.031ZM19.962,66.657a1.117,1.117,0,0,0-1.2,1.016v5.992a5.54,5.54,0,0,1-4.716-4.207,4.888,4.888,0,0,1,3.016-5.213,1.035,1.035,0,0,0,.6-.733.92.92,0,0,0-.314-.854,2.731,2.731,0,0,1,.094-4.268,4.058,4.058,0,0,1,5.028,0,2.731,2.731,0,0,1,.094,4.268.92.92,0,0,0-.314.854,1.035,1.035,0,0,0,.6.733,4.888,4.888,0,0,1,3.016,5.213,5.54,5.54,0,0,1-4.716,4.207V67.673A1.117,1.117,0,0,0,19.962,66.657ZM40.3,26.031H64.223v4.063H40.3ZM51.064,82.908H47.476V70.72h3.589Zm5.981,0H53.457V70.72h3.589Zm15.551,0H59.438V69.7a1.117,1.117,0,0,0-1.2-1.016H46.28a1.117,1.117,0,0,0-1.2,1.016v13.2H31.925V32.125H72.6Z" transform="translate(-8 -24)" fill="#fff7f7" stroke="#3f8dd0" stroke-width="1"/>
    <path id="Path_49" data-name="Path 49" d="M482.392,488h-1.2a1.029,1.029,0,1,0,0,2.031h1.2a1.029,1.029,0,1,0,0-2.031Z" transform="translate(-409.422 -429.092)" fill="#fff7f7" stroke="#3f8dd0" stroke-width="1"/>
    <path id="Path_50" data-name="Path 50" d="M274.766,280H265.2a1.117,1.117,0,0,0-1.2,1.016v8.125a1.117,1.117,0,0,0,1.2,1.016h9.57a1.117,1.117,0,0,0,1.2-1.016v-8.125A1.117,1.117,0,0,0,274.766,280Zm-1.2,8.125h-7.177v-6.094h7.177Z" transform="translate(-225.72 -247.499)" fill="#fff7f7" stroke="#3f8dd0" stroke-width="1"/>
    <path id="Path_51" data-name="Path 51" d="M186.766,280H177.2a1.117,1.117,0,0,0-1.2,1.016v8.125a1.117,1.117,0,0,0,1.2,1.016h9.57a1.117,1.117,0,0,0,1.2-1.016v-8.125A1.117,1.117,0,0,0,186.766,280Zm-1.2,8.125h-7.177v-6.094h7.177Z" transform="translate(-150.879 -247.499)" fill="#fff7f7" stroke="#3f8dd0" stroke-width="1"/>
    <path id="Path_52" data-name="Path 52" d="M362.766,280H353.2a1.117,1.117,0,0,0-1.2,1.016v8.125a1.117,1.117,0,0,0,1.2,1.016h9.57a1.117,1.117,0,0,0,1.2-1.016v-8.125A1.117,1.117,0,0,0,362.766,280Zm-1.2,8.125h-7.177v-6.094h7.177Z" transform="translate(-300.562 -247.499)" fill="#fff7f7" stroke="#3f8dd0" stroke-width="1"/>
    <path id="Path_53" data-name="Path 53" d="M274.766,192H265.2a1.117,1.117,0,0,0-1.2,1.016v8.125a1.117,1.117,0,0,0,1.2,1.016h9.57a1.117,1.117,0,0,0,1.2-1.016v-8.125A1.117,1.117,0,0,0,274.766,192Zm-1.2,8.125h-7.177v-6.094h7.177Z" transform="translate(-225.72 -170.671)" fill="#fff7f7" stroke="#3f8dd0" stroke-width="1"/>
    <path id="Path_54" data-name="Path 54" d="M186.766,192H177.2a1.117,1.117,0,0,0-1.2,1.016v8.125a1.117,1.117,0,0,0,1.2,1.016h9.57a1.117,1.117,0,0,0,1.2-1.016v-8.125A1.117,1.117,0,0,0,186.766,192Zm-1.2,8.125h-7.177v-6.094h7.177Z" transform="translate(-150.879 -170.671)" fill="#fff7f7" stroke="#3f8dd0" stroke-width="1"/>
    <path id="Path_55" data-name="Path 55" d="M362.766,192H353.2a1.117,1.117,0,0,0-1.2,1.016v8.125a1.117,1.117,0,0,0,1.2,1.016h9.57a1.117,1.117,0,0,0,1.2-1.016v-8.125A1.117,1.117,0,0,0,362.766,192Zm-1.2,8.125h-7.177v-6.094h7.177Z" transform="translate(-300.562 -170.671)" fill="#fff7f7" stroke="#3f8dd0" stroke-width="1"/>
    <path id="Path_56" data-name="Path 56" d="M274.766,104H265.2a1.117,1.117,0,0,0-1.2,1.016v8.125a1.117,1.117,0,0,0,1.2,1.016h9.57a1.117,1.117,0,0,0,1.2-1.016v-8.125A1.117,1.117,0,0,0,274.766,104Zm-1.2,8.125h-7.177v-6.094h7.177Z" transform="translate(-225.72 -93.843)" fill="#fff7f7" stroke="#3f8dd0" stroke-width="1"/>
    <path id="Path_57" data-name="Path 57" d="M186.766,104H177.2a1.117,1.117,0,0,0-1.2,1.016v8.125a1.117,1.117,0,0,0,1.2,1.016h9.57a1.117,1.117,0,0,0,1.2-1.016v-8.125A1.117,1.117,0,0,0,186.766,104Zm-1.2,8.125h-7.177v-6.094h7.177Z" transform="translate(-150.879 -93.843)" fill="#fff7f7" stroke="#3f8dd0" stroke-width="1"/>
    <path id="Path_58" data-name="Path 58" d="M352,105.016v8.125a1.117,1.117,0,0,0,1.2,1.016h9.57a1.117,1.117,0,0,0,1.2-1.016v-8.125a1.117,1.117,0,0,0-1.2-1.016H353.2A1.117,1.117,0,0,0,352,105.016Zm2.392,1.016h7.177v6.094h-7.177Z" transform="translate(-300.562 -93.843)" fill="#fff7f7" stroke="#3f8dd0" stroke-width="1"/>
    <path id="Path_59" data-name="Path 59" d="M82.392,329.016a1.212,1.212,0,0,0-2.392,0v1.016a1.212,1.212,0,0,0,2.392,0Z" transform="translate(-69.234 -289.405)" fill="#fff7f7" stroke="#3f8dd0" stroke-width="1"/>
  </g>
</svg>
